# This file uses centimeters as units for non-parametric coordinates.

mtllib BagFaceTest.mtl
g default
v -0.500000 0.006350 0.250000
v 0.500000 0.006350 0.250000
v -0.500000 1.306350 0.250000
v 0.500000 1.306350 0.250000
v -0.500000 1.306350 -0.250000
v 0.500000 1.306350 -0.250000
v -0.500000 0.006350 -0.250000
v 0.500000 0.006350 -0.250000
v -0.449711 0.006350 0.000000
v -0.449365 1.340948 0.000000
v 0.449365 1.305710 0.000000
v 0.449711 0.006350 0.000000
vt 0.375000 0.000000
vt 0.625000 0.000000
vt 0.375000 0.250000
vt 0.625000 0.250000
vt 0.375000 0.500000
vt 0.625000 0.500000
vt 0.375000 0.750000
vt 0.625000 0.750000
vt 0.375000 1.000000
vt 0.625000 1.000000
vt 0.875000 0.000000
vt 0.875000 0.250000
vt 0.125000 0.000000
vt 0.125000 0.250000
vt 0.250000 0.000000
vt 0.375000 0.875000
vt 0.250000 0.250000
vt 0.375000 0.375000
vt 0.625000 0.375000
vt 0.750000 0.250000
vt 0.625000 0.875000
vt 0.750000 0.000000
vt 0.750000 0.000000
vt 0.625000 0.875000
vt 0.250000 0.000000
vt 0.375000 0.875000
vt 0.625000 0.375000
vt 0.750000 0.250000
vt 0.625000 0.000000
vt 0.250000 0.250000
vt 0.375000 0.375000
vt 0.625000 0.500000
vt 0.375000 0.500000
vt 0.375000 0.000000
vt 0.625000 0.750000
vt 0.375000 0.750000
vt 0.625000 0.250000
vt 0.625000 0.250000
vt 0.375000 0.250000
vt 0.375000 0.250000
vn 0.000000 0.000000 1.000000
vn 0.000000 0.000000 1.000000
vn 0.000000 0.000000 1.000000
vn 0.000000 0.000000 1.000000
vn 0.018556 0.999828 0.000000
vn 0.018556 0.999828 0.000000
vn 0.018513 0.997531 -0.067747
vn 0.018513 0.997531 -0.067747
vn 0.000000 0.000000 -1.000000
vn 0.000000 0.000000 -1.000000
vn 0.000000 0.000000 -1.000000
vn 0.000000 0.000000 -1.000000
vn 0.000000 -1.000000 0.000000
vn 0.000000 -1.000000 0.000000
vn 0.000000 -1.000000 0.000000
vn 0.000000 -1.000000 0.000000
vn 1.000000 0.000133 0.000000
vn 0.980231 0.000130 0.197857
vn 0.980231 0.000130 0.197857
vn 1.000000 0.000133 0.000000
vn -0.980233 0.000128 0.197849
vn -1.000000 0.000131 -0.000000
vn -1.000000 0.000131 0.000000
vn -0.980233 0.000128 0.197849
vn -0.980233 0.000128 -0.197849
vn -0.980233 0.000128 -0.197849
vn 0.018513 0.997531 0.067747
vn 0.018513 0.997531 0.067747
vn 0.980231 0.000130 -0.197857
vn 0.980231 0.000130 -0.197857
vn 0.000000 -1.000000 0.000000
vn 0.000000 -1.000000 0.000000
s off
g bag1
usemtl initialShadingGroup
f 1/34/1 2/2/2 4/37/3 3/39/4
s 1
f 10/31/5 11/27/6 6/6/7 5/33/8
s off
f 5/5/9 6/32/10 8/8/11 7/36/12
s 2
f 7/7/13 8/35/14 12/24/15 9/16/16
s 3
f 12/23/17 8/11/18 6/12/19 11/28/20
s 4
f 7/13/21 9/15/22 10/30/23 5/14/24
f 9/25/22 1/1/25 3/40/26 10/17/23
s 1
f 3/3/27 4/38/28 11/19/6 10/18/5
s 3
f 2/29/29 12/22/17 11/20/20 4/4/30
s 2
f 9/26/16 12/21/15 2/10/31 1/9/32
